# xmcd
#
# Track frame offsets: 
#        150
#        17190
#        38516
#        56723
#        85325
#        106592
#        124292
#        143165
#        162645
#        180600
#        197815
#        214623
#        231970
#        248554
#        266120
#        280092
#        298044
#        322304
#        340030
#
# Disc length: 4768 seconds
#
# Revision: 2
# Processed by: cddbd v1.5.2PL0 Copyright (c) Steve Scherf et al.
# Submitted via: ExactAudioCopy v0.99pb5
#
DISCID=1f129e13
DTITLE=Keith Urban - Greatest Hits
DYEAR=2008
DGENRE=Country
TTITLE0=Romeo's Tune
TTITLE1=Got It Right This Time (The Celebration)
TTITLE2=I Told You So [Radio Edit]
TTITLE3=Stupid Boy
TTITLE4=Better Life
TTITLE5=Making Memories of Us [Radio Edit]
TTITLE6=Once in a Lifetime [Radio Edit]
TTITLE7=Tonight I Wanna Cry
TTITLE8=You're My Better Half [Radio Edit]
TTITLE9=Days Go By
TTITLE10=But for the Grace of God [Radio Edit]
TTITLE11=You'll Think of Me [Radio Edit]
TTITLE12=Who Wouldn't Wanna Be Me [Radio Edit]
TTITLE13=Raining on Sunday [Radio Edit]
TTITLE14=Where the Blacktop Ends [Radio Edit]
TTITLE15=Your Everything [Radio Edit]
TTITLE16=Somebody like You
TTITLE17=Everybody [Radio Edit]
TTITLE18=You Look Good in My Shirt (2008)
EXTD=
EXTT0=
EXTT1=
EXTT2=
EXTT3=
EXTT4=
EXTT5=
EXTT6=
EXTT7=
EXTT8=
EXTT9=
EXTT10=
EXTT11=
EXTT12=
EXTT13=
EXTT14=
EXTT15=
EXTT16=
EXTT17=
EXTT18=
PLAYORDER=
